<!-- Generator: Adobe Illustrator 19.0.0, SVG Export Plug-In  -->
<svg version="1.1"
	 xmlns="http://www.w3.org/2000/svg" xmlns:xlink="http://www.w3.org/1999/xlink" xmlns:a="http://ns.adobe.com/AdobeSVGViewerExtensions/3.0/"
	 x="0px" y="0px" width="96.5px" height="96.5px" viewBox="0 0 96.5 96.5" style="enable-background:new 0 0 96.5 96.5;"
	 xml:space="preserve">
<style type="text/css">
	.st0{fill-rule:evenodd;clip-rule:evenodd;fill:#FFFFFF;}
</style>
<defs>
</defs>
<g>
	<path class="st0" d="M48.3,0C21.6,0,0,21.6,0,48.3c0,14.8,6.7,28.1,17.2,36.9c0,0,0,0,0.1,0c0.8,0.9,1.9,1.4,3.1,1.4
		c2.4,0,4.3-1.9,4.3-4.3c0-1.7-0.9-3.1-2.3-3.8c-1.5-1.3-3-3.1-4.4-4.6c-0.2-1.7-0.2-3.1,1.5-4.3c3.8-2.7,8.1-4.9,12.1-7.3l0.1-0.2
		c3.9,4.7,9.9,7.7,16.5,7.7c6.9,0,13.1-3.3,17.1-8.4c4,2.4,8.2,4.5,12.1,7.2c1.7,1.3,1.7,2.8,1.4,4.6l0.1,0
		c-7.3,8.9-18.3,14.5-30.7,14.5c-4.3,0-8.5-0.7-12.3-2c0,0-0.1,0-0.1,0c-0.6-0.3-1.3-0.5-2-0.5c-2.4,0-4.3,1.9-4.3,4.3
		c0,2,1.3,3.6,3.1,4.1c0.1,0.1,0.1,0.1,0.2,0.2c4.8,1.6,10,2.5,15.4,2.5c26.7,0,48.3-21.6,48.3-48.3C96.5,21.6,75,0,48.3,0L48.3,0z
		 M26.7,48.3c0,3,0.6,6,1.8,8.6c-4.2,2.6-7.9,4.7-12.3,7c-1.4,0.8-3.4,0.3-4.6-0.8c-1.8-4.6-2.9-9.6-2.9-14.8
		c0-19.8,14.5-36.2,33.4-39.1c1.7,0.7,3,1.5,3.2,3.6c0.4,4.7,0,9.4,0,14.1C34.8,28.3,26.7,37.4,26.7,48.3L26.7,48.3z M48.3,61.6
		c-7.4,0-13.3-6-13.3-13.3c0-7.4,6-13.3,13.3-13.3c7.4,0,13.3,6,13.3,13.3C61.6,55.6,55.6,61.6,48.3,61.6L48.3,61.6z M80.8,63.1
		c-4.4-2.3-8.2-4.4-12.3-7.1c0.9-2.4,1.4-5,1.4-7.7c0-10.8-7.9-19.7-18.2-21.3c-0.1-4.9,0-9.3,0.3-14.1c0.1-1.6,1.5-3.1,3-3.6
		c18.7,3.2,32.9,19.5,32.9,39.1c0,5-0.9,9.7-2.6,14.1C84.1,63.4,82.2,63.8,80.8,63.1L80.8,63.1z"/>
</g>
</svg>