<!-- Generator: Adobe Illustrator 19.0.0, SVG Export Plug-In  -->
<svg version="1.1"
	 xmlns="http://www.w3.org/2000/svg" xmlns:xlink="http://www.w3.org/1999/xlink" xmlns:a="http://ns.adobe.com/AdobeSVGViewerExtensions/3.0/"
	 x="0px" y="0px" width="178.7px" height="181.7px" viewBox="0 0 178.7 181.7" style="enable-background:new 0 0 178.7 181.7;"
	 xml:space="preserve">
<style type="text/css">
	.st0{fill-rule:evenodd;clip-rule:evenodd;fill:#FFFFFF;}
</style>
<defs>
</defs>
<g>
	<path class="st0" d="M99.3,79.4c0,0,0.6-79.4,0-79.4c45.7,0,79.4,33.7,79.4,79.4C178.7,79.7,99.3,79.4,99.3,79.4L99.3,79.4
		 M172.1,95.7c0,47.5-38.5,86-86,86c-47.5,0-86-38.5-86-86c0-47.5,38.5-86,86-86c2.2,0,5.7,0.2,7.9,0.3v76h77.6
		C171.9,89.1,172.1,92.6,172.1,95.7L172.1,95.7 M156,99.1H80.3V25.4c-38.8,0-64.5,31.5-64.5,70.3c0,38.8,31.5,70.3,70.3,70.3
		c38.8,0,70.3-31.5,70.3-70.3C156.3,88.1,156,99.1,156,99.1 M165,93.1L165,93.1z"/>
</g>
</svg>