<!-- Generator: Adobe Illustrator 19.0.0, SVG Export Plug-In  -->
<svg version="1.1"
	 xmlns="http://www.w3.org/2000/svg" xmlns:xlink="http://www.w3.org/1999/xlink" xmlns:a="http://ns.adobe.com/AdobeSVGViewerExtensions/3.0/"
	 x="0px" y="0px" width="152.7px" height="152.7px" viewBox="0 0 152.7 152.7" style="enable-background:new 0 0 152.7 152.7;"
	 xml:space="preserve">
<style type="text/css">
	.st0{fill-rule:evenodd;clip-rule:evenodd;fill:#FFFFFF;}
</style>
<defs>
</defs>
<g>
	<path class="st0" d="M76.4,0C34.2,0,0,34.2,0,76.3c0,42.2,34.2,76.4,76.4,76.4c42.2,0,76.4-34.2,76.4-76.4
		C152.7,34.2,118.5,0,76.4,0L76.4,0z M76.4,141.8c-36.1,0-65.5-29.4-65.5-65.5c0-36.1,29.4-65.4,65.5-65.4
		c36.1,0,65.5,29.3,65.5,65.4C141.9,112.4,112.5,141.8,76.4,141.8L76.4,141.8z M81.1,69.7c-8.9-3.2-12.5-5.4-12.5-8.7
		c0-2.9,2.2-5.8,8.8-5.8c7.4,0,12.3,2.4,14.8,3.6l3.1-11.6c-3.6-1.6-8.2-3.2-15-3.4v-9H70.3v9.7C59.3,46.6,53,53.6,53,62.7
		c0,9.9,7.5,15,18.5,18.7c7.7,2.6,11,5,11,8.9c0,4-4,6.3-10,6.3c-6.7,0-12.8-2.2-17.1-4.5l-3.1,12c3.9,2.2,10.6,4.1,17.5,4.4v9.7H80
		v-10.6c11.8-1.9,18.2-9.7,18.2-18.8C98.2,79.6,93.4,74,81.1,69.7L81.1,69.7z"/>
</g>
</svg>