<!-- Generator: Adobe Illustrator 19.0.0, SVG Export Plug-In  -->
<svg version="1.1"
	 xmlns="http://www.w3.org/2000/svg" xmlns:xlink="http://www.w3.org/1999/xlink" xmlns:a="http://ns.adobe.com/AdobeSVGViewerExtensions/3.0/"
	 x="0px" y="0px" width="720.8px" height="720.8px" viewBox="0 0 720.8 720.8" style="enable-background:new 0 0 720.8 720.8;"
	 xml:space="preserve">
<style type="text/css">
	.st0{fill-rule:evenodd;clip-rule:evenodd;fill:#FFFFFF;}
</style>
<defs>
</defs>
<g>
	<path class="st0" d="M630.7,0H90.1C40.5,0,0,40.5,0,90.1v540.6c0,49.6,40.5,90.1,90.1,90.1h540.6c49.6,0,90.1-40.5,90.1-90.1V90.1
		C720.8,40.5,680.2,0,630.7,0L630.7,0z M675.7,630.7c0,24.8-20.2,45-45,45H90.1c-24.8,0-45-20.2-45-45v-194h129.3
		c8.3,0,15.9-4.6,19.4-11.9l19.8-41.4l79.9,188.2c7.5,17.6,33.8,16.7,40-1.2l60.1-301.3l42.8,152.4c2.5,8.9,10.9,15.1,20.6,15.1
		h106.8c11.8,0,21.3-9.1,21.3-20.3c0-11.2-9.6-20.3-21.3-20.3h-90.4l-57-202.7c-5.5-19.5-34.1-20.3-40.9-1.2l-64.4,313.1
		l-76.8-180.9c-7-16.6-31.5-17.1-39.2-0.8l-34.7,72.5H45V90.1c0-24.8,20.2-45,45.1-45h540.6c24.8,0,45,20.2,45,45L675.7,630.7
		L675.7,630.7L675.7,630.7z"/>
</g>
</svg>