<!-- Generator: Adobe Illustrator 19.0.0, SVG Export Plug-In  -->
<svg version="1.1"
	 xmlns="http://www.w3.org/2000/svg" xmlns:xlink="http://www.w3.org/1999/xlink" xmlns:a="http://ns.adobe.com/AdobeSVGViewerExtensions/3.0/"
	 x="0px" y="0px" width="77px" height="69.3px" viewBox="0 0 77 69.3" style="enable-background:new 0 0 77 69.3;"
	 xml:space="preserve">
<style type="text/css">
	.st0{fill-rule:evenodd;clip-rule:evenodd;fill:#FFFFFF;}
</style>
<defs>
</defs>
<g>
	<path class="st0" d="M56,66.5h-35c-0.8,0-1.4,0.6-1.4,1.4c0,0.8,0.6,1.4,1.4,1.4h35c0.8,0,1.4-0.6,1.4-1.4
		C57.5,67.2,56.8,66.5,56,66.5L56,66.5z"/>
	<path class="st0" d="M72.4,0H4.6C2,0,0,2,0,4.6v46.4c0,2.6,2,4.6,4.6,4.6h67.8c2.5,0,4.6-2,4.6-4.6V4.6C77,2,74.9,0,72.4,0L72.4,0z
		 M4.6,2.8h67.8c1,0,1.8,0.8,1.8,1.8v39.5H2.8V4.6C2.8,3.6,3.6,2.8,4.6,2.8L4.6,2.8z"/>
	<path class="st0" d="M15.3,35.6c2.7,0,4.8-2.1,4.8-4.7c0-0.7-0.2-1.4-0.4-1.9c2.5-2.3,5.9-5.4,8.3-7.7c0.7,0.4,1.5,0.6,2.3,0.6
		c0.6,0,1.2-0.1,1.7-0.4l7.4,9.1c-0.5,0.7-0.8,1.6-0.8,2.6c0,2.6,2.1,4.7,4.8,4.7c2.7,0,4.8-2.1,4.8-4.7c0-0.7-0.2-1.4-0.5-2
		l12.1-12.4c0.6,0.3,1.3,0.5,2.1,0.5c2.7,0,4.7-2.1,4.7-4.7c0-2.6-2.1-4.7-4.7-4.7c-2.6,0-4.8,2.1-4.8,4.7c0,0.8,0.2,1.6,0.6,2.3
		l-12,12.3c-0.7-0.4-1.5-0.6-2.3-0.6c-0.6,0-1.2,0.1-1.8,0.4l-7.4-9.1c0.5-0.8,0.8-1.7,0.8-2.6c0-2.6-2.1-4.7-4.7-4.7
		c-2.7,0-4.8,2.1-4.8,4.7c0,0.7,0.2,1.4,0.5,2c-2.9,2.7-6,5.5-8.3,7.6c-0.7-0.4-1.5-0.7-2.4-0.7c-2.6,0-4.8,2.2-4.8,4.7
		C10.5,33.4,12.6,35.6,15.3,35.6L15.3,35.6z"/>
	<path class="st0" d="M45.8,63.5c0.8,0,1.4-0.6,1.4-1.4c0-0.8-0.6-1.4-1.4-1.4H31.3c-0.8,0-1.4,0.6-1.4,1.4c0,0.8,0.6,1.4,1.4,1.4
		H45.8L45.8,63.5z"/>
</g>
</svg>